HIERARCHY
ROOT joint_Root
{
	OFFSET 0.0 0.0 0.0
	CHANNELS 6 Xposition Yposition Zposition Zrotation Xrotation Yrotation 
	JOINT Hips
	{
		OFFSET 4.5925 91.4895 -427.239
		CHANNELS 6 Xposition Yposition Zposition Zrotation Xrotation Yrotation 
		JOINT Spine
		{
			OFFSET 15.7357 0.0 0.0
			CHANNELS 6 Xposition Yposition Zposition Zrotation Xrotation Yrotation 
			JOINT Chest
			{
				OFFSET 8.98455 -0.406207 0.0
				CHANNELS 6 Xposition Yposition Zposition Zrotation Xrotation Yrotation 
				JOINT Neck
				{
					OFFSET 16.3773 0.0 0.0
					CHANNELS 6 Xposition Yposition Zposition Zrotation Xrotation Yrotation 
					JOINT Head
					{
						OFFSET 6.45672 0.0 0.0
						CHANNELS 6 Xposition Yposition Zposition Zrotation Xrotation Yrotation 
						End Site
						{
							OFFSET 0.0 0.0 0.0
						}
					}
				}
				JOINT Shoulder_L
				{
					OFFSET 12.9942 -0.242716 4.98039
					CHANNELS 6 Xposition Yposition Zposition Zrotation Xrotation Yrotation 
					JOINT UpperArm_L
					{
						OFFSET 5.34809 0.0 0.0
						CHANNELS 6 Xposition Yposition Zposition Zrotation Xrotation Yrotation 
						JOINT LowerArm_L
						{
							OFFSET 24.3286 1.87007e-05 0.0
							CHANNELS 6 Xposition Yposition Zposition Zrotation Xrotation Yrotation 
							JOINT Hand_L
							{
								OFFSET 22.2916 0.0 0.0
								CHANNELS 6 Xposition Yposition Zposition Zrotation Xrotation Yrotation 
								End Site
								{
									OFFSET 0.0 0.0 0.0
								}
							}
						}
					}
				}
				JOINT Shoulder_R
				{
					OFFSET 12.9945 -0.242716 -4.98039
					CHANNELS 6 Xposition Yposition Zposition Zrotation Xrotation Yrotation 
					JOINT UpperArm_R
					{
						OFFSET -5.34813 0.0 0.0
						CHANNELS 6 Xposition Yposition Zposition Zrotation Xrotation Yrotation 
						JOINT LowerArm_R
						{
							OFFSET -24.3289 0.000322201 0.0
							CHANNELS 6 Xposition Yposition Zposition Zrotation Xrotation Yrotation 
							JOINT Hand_R
							{
								OFFSET -22.2915 -0.000108084 0.0
								CHANNELS 6 Xposition Yposition Zposition Zrotation Xrotation Yrotation 
								End Site
								{
									OFFSET 0.0 0.0 0.0
								}
							}
						}
					}
				}
			}
		}
		JOINT UpperLeg_L
		{
			OFFSET -2.19248 -6.46944 0.0
			CHANNELS 6 Xposition Yposition Zposition Zrotation Xrotation Yrotation 
			JOINT LowerLeg_L
			{
				OFFSET 39.0811 0.0 -1.23785e-05
				CHANNELS 6 Xposition Yposition Zposition Zrotation Xrotation Yrotation 
				JOINT Foot_L
				{
					OFFSET 40.9854 0.0 -1.26872e-05
					CHANNELS 6 Xposition Yposition Zposition Zrotation Xrotation Yrotation 
					JOINT Toes_L
					{
						OFFSET 11.7543 0.0 0.0
						CHANNELS 6 Xposition Yposition Zposition Zrotation Xrotation Yrotation 
						End Site
						{
							OFFSET 0.0 0.0 0.0
						}
					}
				}
			}
		}
		JOINT UpperLeg_R
		{
			OFFSET -2.19251 6.46944 0.0
			CHANNELS 6 Xposition Yposition Zposition Zrotation Xrotation Yrotation 
			JOINT LowerLeg_R
			{
				OFFSET -39.0811 -0.00228153 -0.0401928
				CHANNELS 6 Xposition Yposition Zposition Zrotation Xrotation Yrotation 
				JOINT Foot_R
				{
					OFFSET -40.9854 0.0 0.0
					CHANNELS 6 Xposition Yposition Zposition Zrotation Xrotation Yrotation 
					JOINT Toes_R
					{
						OFFSET -11.7543 0.0 0.0
						CHANNELS 6 Xposition Yposition Zposition Zrotation Xrotation Yrotation 
						End Site
						{
							OFFSET 0.0 0.0 0.0
						}
					}
				}
			}
		}
	}
}
MOTION
Frames:	4
Frame Time:	0.0333333
0.000000 0.000000 0.000000 0.000000 0.000000 -0.000000 -93.415300 88.669000 185.868000 65.640100 83.434200 27.531200 15.735700 0.000005 -0.000001 88.112400 81.633600 -88.224700 8.984550 -0.406207 -0.000000 8.957420 -0.549448 -0.181343 16.377300 -0.000001 -0.000001 1.139660 -2.015310 0.529080 6.456720 -0.000001 -0.000000 -0.941565 -1.077430 3.239550 12.994200 -0.242716 4.980390 -90.929100 3.171170 -73.662100 5.348090 -0.000007 -0.000001 -57.646500 34.419100 -27.013000 24.328600 0.000019 0.000005 7.868780 16.699800 -25.686300 22.291600 -0.000001 0.000005 12.259600 5.233730 1.858540 12.994500 -0.242716 -4.980390 88.343100 10.445300 -80.934700 -5.348130 -0.000001 -0.000004 -57.043800 31.138200 -18.016100 -24.328900 0.000322 -0.000009 0.740909 1.434740 -27.350800 -22.291500 -0.000108 -0.000004 15.236700 5.399530 -2.920820 -2.192480 -6.469440 -0.000000 -178.687000 -10.514000 -10.829900 39.081100 -0.000007 -0.000012 -0.329956 0.382507 40.782200 40.985400 -0.000006 -0.000013 2.957840 -0.881191 -77.309900 11.754300 -0.000000 0.000003 -0.000284 -0.002486 -16.670300 -2.192510 6.469440 -0.000001 179.579000 14.945900 157.752000 -39.081100 -0.002282 -0.040193 0.099954 -0.051299 62.070600 -40.985400 0.000008 0.000006 2.770630 -2.986600 -63.963100 -11.754300 -0.000006 -0.000006 -0.012263 -0.119832 -21.458500
0.000000 0.000000 0.000000 0.000000 0.000000 -0.000000 -91.951900 88.981900 186.013000 59.489200 84.160700 33.000900 15.735700 0.000005 -0.000001 86.593900 81.742700 -86.595600 8.984550 -0.406207 -0.000000 8.720250 -0.976302 0.071208 16.377300 -0.000001 -0.000001 0.691029 -2.144200 0.531048 6.456720 -0.000001 -0.000000 -1.439340 -1.129290 3.634380 12.994200 -0.242716 4.980390 -90.787000 2.733030 -73.929200 5.348090 -0.000007 -0.000001 -56.409000 33.574000 -29.290600 24.328600 0.000019 0.000005 8.199550 15.750700 -27.961500 22.291600 -0.000001 0.000005 12.510600 5.240020 1.694480 12.994500 -0.242716 -4.980390 88.297600 10.464100 -80.706400 -5.348130 -0.000001 -0.000004 -58.867800 31.351900 -14.703500 -24.328900 0.000322 -0.000009 0.842107 1.721860 -26.098400 -22.291500 -0.000108 -0.000004 14.355400 5.392990 -2.710120 -2.192480 -6.469440 -0.000000 -178.300000 -10.330500 -9.552940 39.081100 -0.000007 -0.000012 -0.287389 0.355953 38.917300 40.985400 -0.000006 -0.000013 3.072810 -0.033641 -77.393000 11.754300 -0.000000 0.000003 -0.000382 -0.003180 -16.695000 -2.192510 6.469440 -0.000001 -178.166000 15.864600 155.781000 -39.081100 -0.002282 -0.040193 0.068414 -0.043204 56.467700 -40.985400 0.000008 0.000006 2.347970 -1.910940 -64.309600 -11.754300 -0.000006 -0.000006 -0.012479 -0.121311 -21.519100
0.000000 0.000000 0.000000 0.000000 0.000000 -0.000000 -90.544100 89.217200 186.209000 52.345100 84.977600 39.386200 15.735700 0.000005 -0.000001 84.588000 81.800100 -84.507500 8.984550 -0.406207 -0.000000 8.564130 -1.538780 0.276120 16.377300 -0.000001 -0.000001 0.088838 -2.219620 0.575306 6.456720 -0.000001 -0.000000 -1.999980 -1.151040 3.905510 12.994200 -0.242716 4.980390 -90.698000 2.459460 -74.151100 5.348090 -0.000007 -0.000001 -55.020600 32.718500 -31.148800 24.328600 0.000019 0.000005 8.574140 14.835300 -30.493000 22.291600 -0.000001 0.000005 12.754800 5.242910 1.619470 12.994500 -0.242716 -4.980390 88.269900 10.461500 -80.555500 -5.348130 -0.000001 -0.000004 -60.548500 31.297700 -11.851200 -24.328900 0.000322 -0.000009 0.997431 2.170980 -24.709200 -22.291500 -0.000108 -0.000004 13.710300 5.385290 -2.464940 -2.192480 -6.469440 -0.000000 -178.016000 -10.114200 -8.498720 39.081100 -0.000007 -0.000012 -0.255867 0.337137 37.196900 40.985400 -0.000006 -0.000013 3.083270 0.725887 -77.482000 11.754300 -0.000000 0.000003 -0.000350 -0.002961 -16.687300 -2.192510 6.469440 -0.000001 -175.752000 17.326600 154.088000 -39.081100 -0.002282 -0.040193 0.042436 -0.033436 49.527600 -40.985400 0.000008 0.000006 1.723810 -0.223449 -64.119200 -11.754300 -0.000006 -0.000006 -0.012889 -0.124091 -21.633000
0.000000 0.000000 0.000000 0.000000 0.000000 -0.000000 -89.117200 89.315700 186.423000 45.194300 85.833100 45.767400 15.735700 0.000005 -0.000001 82.704500 81.828300 -82.584600 8.984550 -0.406207 -0.000000 8.451270 -2.064900 0.392237 16.377300 -0.000001 -0.000001 -0.530190 -2.319720 0.610367 6.456720 -0.000001 -0.000000 -2.592750 -1.226920 4.098640 12.994200 -0.242716 4.980390 -90.639900 2.299920 -74.447500 5.348090 -0.000007 -0.000001 -53.620100 31.983700 -32.601200 24.328600 0.000019 0.000005 8.942620 14.081300 -32.892700 22.291600 -0.000001 0.000005 13.278300 5.251590 1.390710 12.994500 -0.242716 -4.980390 88.254500 10.408500 -80.425600 -5.348130 -0.000001 -0.000004 -62.163000 30.869800 -9.420050 -24.328900 0.000322 -0.000009 1.032300 2.426980 -23.072200 -22.291500 -0.000108 -0.000004 13.472100 5.382370 -2.372950 -2.192480 -6.469440 -0.000000 -178.073000 -9.891140 -7.629700 39.081100 -0.000007 -0.000012 -0.161440 0.222797 35.927600 40.985400 -0.000006 -0.000013 4.484960 1.114450 -77.942500 11.754300 -0.000000 0.000003 -0.795240 -1.056580 -15.974800 -2.192510 6.469440 -0.000001 -173.277000 19.253200 152.683000 -39.081100 -0.002282 -0.040193 0.021914 -0.020717 41.980900 -40.985400 0.000008 0.000006 1.175710 2.617210 -64.262900 -11.754300 -0.000006 -0.000006 -0.013590 -0.128749 -21.824000
